# File created by Blade
# Date/Time:  Thu Jan 22 19:24:27 2015
#---------------------------------------------------------
:version 1.10
:name HOM
:units
  mass 1.0
  length 1.000000
  angle deg
:documentation
     Acclaim Skeleton File
:root
   axis xyz
   order TX TY TZ RX RY RZ
   position 0.000000 0.000000 0.000000
   orientation 0 0 0
:bonedata
   begin
      id 1
      name RightUpLeg_dum
      direction -1.000000 0.000000 0.000000
      length 4.478084
      axis 0.0 0.0 0.0 xyz
   end
   begin
      id 2
      name LeftUpLeg_dum
      direction 1.000000 0.000000 0.000000
      length 4.478084
      axis 0.0 0.0 0.0 xyz
   end
   begin
      id 3
      name Spine_dum
      direction 0.000000 1.000000 0.000000
      length 6.068208
      axis 0.0 0.0 0.0 xyz
   end
   begin
      id 4
      name RightUpLeg
      direction 0.000000 -1.000000 0.000000
      length 16.405774
      axis 0.0 0.0 0.0 xyz
      dof rx ry rz
   end
   begin
      id 5
      name RightLeg
      direction 0.000000 -1.000000 0.000000
      length 14.644143
      axis 0.0 0.0 0.0 xyz
      dof rx ry rz
   end
   begin
      id 6
      name RightFoot
      direction 0.000000 -0.258819 0.965926
      length 5.806150
      axis 15.0 0.0 0.0 xyz
      dof rx ry rz
   end
   begin
      id 7
      name RightToeBase
      direction 0.000000 0.000000 1.000000
      length 2.952750
      axis 0.0 0.0 0.0 xyz
      dof rx ry rz
   end
   begin
      id 8
      name LeftUpLeg
      direction 0.000000 -1.000000 0.000000
      length 16.405774
      axis 0.0 0.0 0.0 xyz
      dof rx ry rz
   end
   begin
      id 9
      name LeftLeg
      direction 0.000000 -1.000000 0.000000
      length 14.644143
      axis 0.0 0.0 0.0 xyz
      dof rx ry rz
   end
   begin
      id 10
      name LeftFoot
      direction 0.000000 -0.258819 0.965926
      length 5.806150
      axis 15.0 0.0 0.0 xyz
      dof rx ry rz
   end
   begin
      id 11
      name LeftToeBase
      direction 0.000000 0.000000 1.000000
      length 2.952750
      axis 0.0 0.0 0.0 xyz
      dof rx ry rz
   end
   begin
      id 12
      name Spine
      direction 0.000000 1.000000 0.000000
      length 0.000000
      axis 0.0 0.0 0.0 xyz
      dof rx ry rz
   end
   begin
      id 13
      name Spine_dum1
      direction 0.000000 1.000000 0.000000
      length 10.013923
      axis 0.0 0.0 0.0 xyz
   end
   begin
      id 14
      name Spine_dum2
      direction 0.000000 1.000000 0.000000
      length 10.013923
      axis 0.0 0.0 0.0 xyz
   end
   begin
      id 15
      name Spine_dum3
      direction 0.000000 1.000000 0.000000
      length 15.777476
      axis 0.0 0.0 0.0 xyz
   end
   begin
      id 16
      name RightShoulder
      direction -1.000000 0.000000 0.000000
      length 7.190220
      axis 0.0 0.0 90.0 xyz
      dof rx ry rz
   end
   begin
      id 17
      name RightArm
      direction -1.000000 0.000000 0.000000
      length 10.177469
      axis 0.0 0.0 90.0 xyz
      dof rx ry rz
   end
   begin
      id 18
      name RightForeArm
      direction -1.000000 0.000000 0.000000
      length 8.392114
      axis 0.0 0.0 90.0 xyz
      dof ry rz rx
   end
   begin
      id 19
      name RightHand
      direction -1.000000 0.000000 0.000000
      length 0.000000
      axis 0.0 0.0 90.0 xyz
      dof rx ry rz
   end
   begin
      id 20
      name RightHand_dum1
      direction -1.000000 0.000000 0.000000
      length 3.937000
      axis 0.0 0.0 90.0 xyz
   end
   begin
      id 21
      name RightHand_dum2
      direction 0.000000 0.000000 0.000000
      length 0.000000
      axis 0.0 0.0 90.0 xyz
   end
   begin
      id 22
      name RightHandThumb1
      direction 0.000000 0.000000 1.000000
      length 3.937000
      axis 0.0 0.0 90.0 xyz
      dof rx rz ry
   end
   begin
      id 23
      name LeftShoulder
      direction 1.000000 0.000000 0.000000
      length 7.190220
      axis 0.0 0.0 -90.0 xyz
      dof rx ry rz
   end
   begin
      id 24
      name LeftArm
      direction 1.000000 0.000000 0.000000
      length 10.177469
      axis 0.0 0.0 -90.0 xyz
      dof rx ry rz
   end
   begin
      id 25
      name LeftForeArm
      direction 1.000000 0.000000 0.000000
      length 8.392114
      axis 0.0 0.0 -90.0 xyz
      dof ry rz rx
   end
   begin
      id 26
      name LeftHand
      direction 1.000000 0.000000 0.000000
      length 0.000000
      axis 0.0 0.0 -90.0 xyz
      dof rx ry rz
   end
   begin
      id 27
      name LeftHand_dum1
      direction 1.000000 0.000000 0.000000
      length 3.937000
      axis 0.0 0.0 -90.0 xyz
   end
   begin
      id 28
      name LeftHand_dum2
      direction 0.000000 0.000000 0.000000
      length 0.000000
      axis 0.0 0.0 -90.0 xyz
   end
   begin
      id 29
      name LeftHandThumb1
      direction 0.000000 0.000000 1.000000
      length 3.937000
      axis 0.0 0.0 -90.0 xyz
      dof rx rz ry
   end
   begin
      id 30
      name Head
      direction 0.000000 1.000000 0.000000
      length 4.527550
      axis 0.0 0.0 0.0 xyz
      dof rx ry rz
   end
:hierarchy
   begin
      root RightUpLeg_dum LeftUpLeg_dum Spine_dum
      RightUpLeg_dum RightUpLeg
      LeftUpLeg_dum LeftUpLeg
      Spine_dum Spine
      RightUpLeg RightLeg
      RightLeg RightFoot
      RightFoot RightToeBase
      LeftUpLeg LeftLeg
      LeftLeg LeftFoot
      LeftFoot LeftToeBase
      Spine Spine_dum1 Spine_dum2 Spine_dum3
      Spine_dum1 RightShoulder
      Spine_dum2 LeftShoulder
      Spine_dum3 Head
      RightShoulder RightArm
      RightArm RightForeArm
      RightForeArm RightHand
      RightHand RightHand_dum1 RightHand_dum2
      RightHand_dum2 RightHandThumb1
      LeftShoulder LeftArm
      LeftArm LeftForeArm
      LeftForeArm LeftHand
      LeftHand LeftHand_dum1 LeftHand_dum2
      LeftHand_dum2 LeftHandThumb1
   end

# File created by Blade
# Date/Time:  Thu Jan 22 19:24:19 2015
# Frame Rate: 120.000 fps
#------------------------------------------------------
:FULLY-SPECIFIED
:DEGREES
558
root -6.495902 32.324346 -3.186067 9.778358 -22.786318 -2.406817
RightUpLeg 0.870725 20.494959 12.191759
RightLeg -3.890812 -0.000000 0.000000
RightFoot -6.257014 -3.588962 -6.804095
RightToeBase 4.650156 -0.000000 -0.000000
LeftUpLeg -16.191851 5.506713 -12.558090
LeftLeg 23.189190 -0.000000 -0.000000
LeftFoot -22.436620 15.871701 -9.848404
LeftToeBase 6.238263 -0.000000 -0.000000
Spine -8.853474 6.218062 1.203348
RightShoulder -16.910911 -13.181890 -25.715375
RightArm 18.949504 31.407243 47.831316
RightForeArm -10.937224 -0.000000 22.274338
RightHand 16.453983 -0.000000 -2.309181
RightHandThumb1 -24.326973 -0.000000 -32.862282
LeftShoulder -25.608321 7.858934 27.691475
LeftArm 11.389485 -32.379554 -43.456827
LeftForeArm 11.245235 -0.000000 2.028564
LeftHand 0.573960 -0.000000 -7.076524
LeftHandThumb1 -26.253704 0.000000 33.147579
Head -0.205572 15.871723 -6.461138
559
root -6.501368 32.318944 -3.188500 9.779450 -22.671445 -2.448434
RightUpLeg 0.856281 20.482170 12.261809
RightLeg -3.857218 -0.000000 0.000000
RightFoot -6.226215 -3.658908 -6.977762
RightToeBase 4.433477 -0.000000 -0.000000
LeftUpLeg -16.330911 5.393097 -12.483407
LeftLeg 23.534742 -0.000000 -0.000000
LeftFoot -22.550586 15.824051 -9.941939
LeftToeBase 6.237213 -0.000000 -0.000000
Spine -8.849077 6.188346 1.208772
RightShoulder -16.970067 -13.253311 -25.651048
RightArm 18.822876 31.563778 47.820052
RightForeArm -10.867363 -0.000000 22.593830
RightHand 16.475986 -0.000000 -2.208537
RightHandThumb1 -24.326973 -0.000000 -32.862282
LeftShoulder -25.587922 7.905286 27.614082
LeftArm 11.449109 -32.376300 -43.536196
LeftForeArm 11.195738 -0.000000 2.052856
LeftHand 0.484010 -0.000000 -7.217599
LeftHandThumb1 -26.253704 0.000000 33.147579
Head -0.245453 15.854506 -6.442026
560
root -6.509439 32.313624 -3.187733 9.727186 -22.531828 -2.477972
RightUpLeg 0.901234 20.452615 12.343913
RightLeg -3.829532 -0.000000 0.000000
RightFoot -6.202685 -3.739740 -7.146564
RightToeBase 4.336806 -0.000000 -0.000000
LeftUpLeg -16.401683 5.227435 -12.406579
LeftLeg 23.848072 -0.000000 -0.000000
LeftFoot -22.666656 15.809364 -10.086246
LeftToeBase 6.182654 -0.000000 -0.000000
Spine -8.787787 6.141467 1.204775
RightShoulder -17.009892 -13.342227 -25.596329
RightArm 18.689632 31.753147 47.826473
RightForeArm -10.760027 -0.000000 22.839553
RightHand 16.482514 0.000000 -2.045043
RightHandThumb1 -24.326973 -0.000000 -32.862282
LeftShoulder -25.524198 7.819360 27.615842
LeftArm 11.347773 -32.297901 -43.564760
LeftForeArm 11.032608 0.000000 2.088743
LeftHand 0.430721 -0.000000 -7.411766
LeftHandThumb1 -26.253704 0.000000 33.147579
Head -0.305751 15.772020 -6.400180
561
root -6.516015 32.309846 -3.190529 9.708406 -22.392580 -2.514594
RightUpLeg 0.891911 20.440154 12.418976
RightLeg -3.766193 -0.000000 0.000000
RightFoot -6.187454 -3.843295 -7.265178
RightToeBase 4.284215 -0.000000 -0.000000
LeftUpLeg -16.500926 5.086772 -12.333221
LeftLeg 24.131297 -0.000000 -0.000000
LeftFoot -22.733821 15.792734 -10.154771
LeftToeBase 6.067718 -0.000000 -0.000000
Spine -8.755023 6.092135 1.208472
RightShoulder -17.067238 -13.452111 -25.543564
RightArm 18.614120 31.915263 47.869075
RightForeArm -10.777741 -0.000000 23.010915
RightHand 16.527615 -0.000000 -2.205271
RightHandThumb1 -24.326973 -0.000000 -32.862282
LeftShoulder -25.498570 7.841641 27.540348
LeftArm 11.425148 -32.229572 -43.652154
LeftForeArm 10.940346 -0.000000 2.020180
LeftHand 0.391147 -0.000000 -7.618906
LeftHandThumb1 -26.253704 0.000000 33.147579
Head -0.355647 15.635994 -6.347306
